<svg width="32" height="32" viewBox="0 0 32 32" fill="none" xmlns="http://www.w3.org/2000/svg">
<path d="M5.87233 0.366415C3.3054 0.946205 1.26955 2.83052 0.53193 5.29463C-0.0581694 7.20794 -0.0581694 7.67177 0.53193 9.58507C1.06302 11.4114 2.56777 13.1218 4.36758 13.9625C6.34441 14.9191 9.47194 14.7162 11.4488 13.5276C13.4551 12.2811 14.6058 10.3968 14.7533 8.01964C14.9009 5.90341 14.5173 4.59888 13.3371 3.00446C11.8913 1.03317 8.40976 -0.213375 5.87233 0.366415Z" fill="#F1F4F8"/>
<path d="M16.9299 9.15023C16.9299 14.2814 17.0774 18.7168 17.2544 19.4705C17.874 22.0796 19.2903 24.4567 21.6212 26.7469C24.0406 29.124 25.8109 30.1676 28.6433 30.8924C32.0069 31.7621 31.6824 32.6028 31.6824 22.9203C31.6824 16.2527 31.5938 14.0785 31.2103 12.426C29.7645 6.10633 24.5422 1.38104 17.756 0.250454L16.9299 0.134495V9.15023Z" fill="#F1F4F8"/>
<path d="M0.206535 17.848C1.00317 22.3703 3.77664 26.3419 7.90734 28.806C9.50061 29.7337 12.8347 30.8353 14.1329 30.8353H14.8115V23.7328V16.6304H7.40575H0L0.206535 17.848Z" fill="#F1F4F8"/>
</svg>
