<svg width="112" height="110" viewBox="0 0 112 110" fill="none" xmlns="http://www.w3.org/2000/svg">
<path d="M20.7507 1.4316C11.6788 3.46086 4.4838 10.056 1.87693 18.6804C-0.208569 25.3769 -0.208569 27.0004 1.87693 33.6969C3.75388 40.0891 9.0719 46.0755 15.4327 49.0179C22.4191 52.3662 33.4722 51.6559 40.4586 47.4959C47.5493 43.133 51.6161 36.5379 52.1374 28.2179C52.6588 20.8111 51.3032 16.2452 47.1322 10.6648C42.0228 3.76525 29.7183 -0.597668 20.7507 1.4316Z" fill="#0E172A"/>
<path d="M59.8326 32.1749C59.8326 50.134 60.3539 65.6578 60.9796 68.2959C63.1693 77.4276 68.1745 85.7476 76.4123 93.7632C84.9628 102.083 91.2193 105.736 101.23 108.272C113.117 111.316 111.97 114.259 111.97 80.37C111.97 57.0335 111.657 49.4237 110.302 43.6403C105.192 21.5213 86.7355 4.98277 62.7522 1.0257L59.8326 0.619844V32.1749Z" fill="#0E172A"/>
<path d="M0.729925 62.617C3.54535 78.4453 13.3472 92.3458 27.9457 100.97C33.5765 104.217 45.3596 108.073 49.9477 108.073H52.346V83.2141V58.3555H26.173H0L0.729925 62.617Z" fill="#0E172A"/>
</svg>
