<svg width="71" height="70" viewBox="0 0 71 70" fill="none" xmlns="http://www.w3.org/2000/svg">
<path d="M13.7191 0.514519C8.02414 1.80084 3.50743 5.98138 1.87093 11.4482C0.56174 15.6931 0.56174 16.7222 1.87093 20.967C3.04921 25.0189 6.38765 28.8136 10.3807 30.6787C14.7665 32.8012 21.7052 32.351 26.091 29.714C30.5423 26.9484 33.0952 22.7679 33.4225 17.494C33.7498 12.7989 32.8988 9.90466 30.2804 6.36728C27.0729 1.99379 19.3487 -0.771801 13.7191 0.514519Z" fill="#364354"/>
<path d="M38.2512 20.0023C38.2512 31.3862 38.5785 41.2266 38.9713 42.8988C40.3459 48.6873 43.488 53.9612 48.6593 59.0421C54.027 64.3161 57.9546 66.6314 64.2387 68.2393C71.7011 70.1688 70.9811 72.034 70.9811 50.5524C70.9811 35.7597 70.7847 30.936 69.9337 27.27C66.7262 13.2491 55.1398 2.76558 40.0841 0.257256L38.2512 -7.62939e-06V20.0023Z" fill="#364354"/>
<path d="M1.14901 39.2991C2.91643 49.3324 9.06964 58.1437 18.234 63.6106C21.7688 65.6687 29.1658 68.1127 32.046 68.1127H33.5516V52.3553V36.5978H17.1212H0.690796L1.14901 39.2991Z" fill="#364354"/>
</svg>
