<svg width="26" height="32" viewBox="0 0 26 32" fill="none" xmlns="http://www.w3.org/2000/svg">
<path d="M17.6972 4.97012C18.3008 4.29126 18.7611 3.50272 19.0515 2.6498C19.342 1.79688 19.4569 0.896379 19.3897 0C17.5366 0.145967 15.8163 0.996449 14.5996 2.36821C14.017 3.02566 13.5755 3.7905 13.3012 4.61745C13.027 5.4444 12.9255 6.31664 13.003 7.18253C13.9069 7.18988 14.8005 6.99416 15.6145 6.61051C16.4285 6.22687 17.1411 5.66559 17.6972 4.97012ZM21.7209 16.5619C21.7316 15.368 22.0539 14.1965 22.6573 13.1579C23.2607 12.1193 24.1254 11.2478 25.1697 10.6258C24.5106 9.69912 23.6394 8.93506 22.625 8.39417C21.6106 7.85329 20.481 7.55046 19.3258 7.50972C16.835 7.26043 14.5358 8.92753 13.2105 8.92753C11.8853 8.92753 10.0172 7.54088 7.94146 7.57204C6.58448 7.61566 5.26225 8.00171 4.10374 8.69255C2.94522 9.38339 1.98998 10.3554 1.33118 11.5139C-1.479 16.2814 0.612666 23.3705 3.42284 27.2188C4.70019 29.104 6.29687 31.2386 8.4045 31.1606C10.5121 31.0827 11.1987 29.8831 13.6416 29.8831C16.0846 29.8831 16.835 31.1606 18.9107 31.1139C20.9864 31.0672 22.4554 29.1819 23.7966 27.2967C24.7467 25.928 25.4888 24.4324 26 22.8563C24.7346 22.3297 23.655 21.453 22.8945 20.3344C22.134 19.2157 21.726 17.9042 21.7209 16.5619Z" fill="#0E172A"/>
</svg>
