<svg width="50" height="50" viewBox="0 0 50 50" fill="none" xmlns="http://www.w3.org/2000/svg">
<circle cx="25" cy="25" r="25" fill="#0E172A"/>
<path d="M21.9188 25.4986L30.4535 34.7914C30.8036 35.145 31 35.6225 31 36.1201C31 36.6177 30.8036 37.0952 30.4535 37.4488C30.2816 37.6234 30.0766 37.762 29.8506 37.8566C29.6246 37.9513 29.382 38 29.137 38C28.892 38 28.6494 37.9513 28.4234 37.8566C28.1974 37.762 27.9925 37.6234 27.8205 37.4488L17.4138 26.8301C17.0641 26.4757 16.8681 25.9978 16.8681 25.5C16.8681 25.0022 17.0641 24.5243 17.4138 24.1699L27.8205 13.5512C27.9925 13.3766 28.1974 13.238 28.4234 13.1434C28.6494 13.0487 28.892 13 29.137 13C29.382 13 29.6246 13.0487 29.8506 13.1434C30.0766 13.238 30.2816 13.3766 30.4535 13.5512C30.8036 13.9048 31 14.3823 31 14.8799C31 15.3775 30.8036 15.855 30.4535 16.2086L21.9188 25.4986Z" fill="#F1F4F8"/>
</svg>
