<svg width="28" height="28" viewBox="0 0 28 28" fill="none" xmlns="http://www.w3.org/2000/svg">
<path d="M14.2885 11.7165H27.7757C27.9138 12.4002 27.9948 13.1875 27.9984 13.9919V13.9953C27.9996 14.0705 28.0007 14.1594 28.0007 14.2483C28.0007 16.6764 27.3733 18.9643 26.266 20.9719L26.3053 20.8933C25.185 22.9009 23.5383 24.5166 21.5381 25.607L21.4774 25.6378C19.4831 26.7145 17.0995 27.3492 14.5612 27.3492C14.4647 27.3492 14.3683 27.348 14.273 27.3469H14.2873C14.2718 27.3469 14.2528 27.3469 14.2349 27.3469C12.2442 27.3469 10.35 26.9504 8.6343 26.236L8.72478 26.2702C5.26964 24.8812 2.57648 22.3027 1.15965 19.0851L1.12513 18.9973C0.413141 17.4261 0 15.5962 0 13.674C0 11.7518 0.414332 9.92195 1.16084 8.26184L1.12513 8.35071C2.57648 5.04415 5.27083 2.46682 8.63311 1.11092L8.72478 1.07788C10.3488 0.397653 12.2407 0.00227881 14.2302 0.00227881H14.2909H14.2873C14.3576 0.00113941 14.4409 0 14.5242 0C18.1496 0 21.4429 1.36387 23.8741 3.58571L23.8693 3.58116L19.9808 7.16003C18.5664 5.84744 16.6352 5.03732 14.5064 5.03732C14.429 5.03732 14.3528 5.03846 14.2754 5.04074H14.2861C14.2695 5.04074 14.2504 5.04074 14.2302 5.04074C12.6133 5.04074 11.1 5.47143 9.81181 6.21888L9.84991 6.19837C7.1758 7.74569 5.41489 10.5144 5.41489 13.6752C5.41489 16.8359 7.1758 19.6046 9.80943 21.1303L9.84991 21.1519C11.1012 21.8789 12.6133 22.3096 14.2302 22.3096H14.2897H14.2861H14.3849C15.4136 22.3096 16.403 22.1535 17.3305 21.8629L17.2638 21.8812C18.1163 21.6282 18.8581 21.2636 19.5177 20.7987L19.4974 20.8124C20.0761 20.3874 20.5773 19.9077 21.0071 19.3722L21.0214 19.354C21.3929 18.9062 21.7143 18.3957 21.962 17.8488L21.9798 17.8044C22.1572 17.4056 22.3025 16.9396 22.3918 16.4553L22.3977 16.4154H14.2885V11.7165Z" fill="#0E172A"/>
</svg>
